<?xml version="1.0" encoding="utf-8"?>
<!-- Generator: Adobe Illustrator 24.1.1, SVG Export Plug-In . SVG Version: 6.00 Build 0)  -->
<svg version="1.1" id="Layer_1" xmlns="http://www.w3.org/2000/svg" xmlns:xlink="http://www.w3.org/1999/xlink" x="0px" y="0px"
	 viewBox="0 0 786.6 617.1" style="enable-background:new 0 0 786.6 617.1;" xml:space="preserve">
<style type="text/css">
	.st0{fill:#BFC8DF;}
	.st1{fill:#334FA2;}
	.st2{fill:#5A76BA;}
	.st3{fill:#34BCA9;}
	.st4{fill:#75CBC4;}
	.st5{fill:#149B85;}
	.st6{fill:#73CBC8;}
	.st7{fill:#2E368F;}
	.st8{fill:#6169B1;}
</style>
<polygon class="st0" points="61,83 229,259 229,141 325,141 485,312 485,188 581,188 722,517 61,533.3 "/>
<rect x="101" y="226" class="st1" width="96" height="269"/>
<rect x="101" y="226" class="st2" width="48.8" height="269"/>
<rect x="229" y="141" class="st3" width="96" height="354"/>
<rect x="229" y="141" class="st4" width="48.8" height="354"/>
<rect x="485" y="188" class="st5" width="96" height="307"/>
<rect x="485" y="188" class="st6" width="48.8" height="307"/>
<rect x="357" y="279" class="st7" width="96" height="216"/>
<rect x="357" y="279" class="st8" width="48.8" height="216"/>
<rect x="37" y="83" class="st1" width="24" height="458"/>
<rect x="367.5" y="186.5" transform="matrix(-1.836970e-16 1 -1 -1.836970e-16 908.5 149.5)" class="st1" width="24" height="685"/>
</svg>
