<?xml version="1.0" encoding="utf-8"?>
<!-- Generator: Adobe Illustrator 24.1.0, SVG Export Plug-In . SVG Version: 6.00 Build 0)  -->
<svg version="1.1" id="Layer_1" xmlns="http://www.w3.org/2000/svg" xmlns:xlink="http://www.w3.org/1999/xlink" x="0px" y="0px"
	 viewBox="0 0 85 85" style="enable-background:new 0 0 85 85;" xml:space="preserve">
<style type="text/css">
	.st0{fill:#FFFFFF;}
	.st1{fill:#2B4CAD;}
</style>
<g id="Facebook">
	<g id="XMLID_1_">
		<g>
			<path class="st0" d="M42.5,0C66,0,85,19,85,42.5S66,85,42.5,85S0,66,0,42.5S19,0,42.5,0z M65.7,63.2V21.8c0-1.4-1.2-2.6-2.6-2.6
				H21.8c-1.4,0-2.6,1.1-2.6,2.6v41.4c0,1.4,1.1,2.6,2.6,2.6h22.3v-18H38v-7h6.1v-5.2c0-6,3.7-9.3,9-9.3c1.8,0,3.6,0.1,5.4,0.3v6.3
				h-3.7c-2.9,0-3.5,1.4-3.5,3.4v4.5h7l-0.9,7h-6v18h11.8C64.6,65.7,65.7,64.6,65.7,63.2z"/>
			<path class="st1" d="M65.7,21.8v41.3c0,1.4-1.2,2.6-2.6,2.6H51.4v-18h6l0.9-7h-7v-4.5c0-2,0.6-3.4,3.5-3.4h3.7v-6.3
				c-1.8-0.2-3.6-0.3-5.4-0.3c-5.3,0-9,3.3-9,9.3v5.2H38v7h6.1v18H21.8c-1.4,0-2.6-1.2-2.6-2.6V21.8c0-1.4,1.1-2.6,2.6-2.6h41.4
				C64.6,19.3,65.7,20.4,65.7,21.8z"/>
		</g>
		<g>
		</g>
	</g>
</g>
</svg>
