<?xml version="1.0" encoding="utf-8"?>
<!-- Generator: Adobe Illustrator 24.1.0, SVG Export Plug-In . SVG Version: 6.00 Build 0)  -->
<svg version="1.1" id="Layer_1" xmlns="http://www.w3.org/2000/svg" xmlns:xlink="http://www.w3.org/1999/xlink" x="0px" y="0px"
	 viewBox="0 0 85 85" style="enable-background:new 0 0 85 85;" xml:space="preserve">
<style type="text/css">
	.st0{fill:#FFFFFF;}
	.st1{fill:#2B4CAD;}
</style>
<g id="Instagram">
	<g id="XMLID_1_">
		<g>
			<path class="st0" d="M42.5,0C66,0,85,19,85,42.5S66,85,42.5,85S0,66,0,42.5S19,0,42.5,0z M66.4,42.5c0-6.5,0-7.3-0.1-9.8
				c0-2-0.4-3.9-1.1-5.8c-1.2-3.2-3.8-5.8-7-7c-1.8-0.7-3.8-1.1-5.8-1.1c-2.5-0.1-3.4-0.1-9.8-0.1l-0.1,0c-6.5,0-7.3,0-9.8,0.1
				c-2,0-3.9,0.4-5.8,1.1c-3.2,1.2-5.8,3.8-7,7c-0.7,1.9-1.1,3.8-1.1,5.8c-0.1,2.5-0.1,3.4-0.1,9.8s0,7.3,0.1,9.8
				c0.1,1.9,0.5,3.9,1.2,5.7c1.2,3.2,3.8,5.8,7,7c1.9,0.7,3.8,1.1,5.8,1.1c2.5,0.1,3.4,0.1,9.8,0.1s7.3,0,9.8-0.1
				c2,0,3.9-0.4,5.8-1.1c3.2-1.2,5.8-3.8,7-7c0.7-1.8,1.1-3.8,1.1-5.8C66.4,49.8,66.4,49,66.4,42.5z"/>
			<path class="st1" d="M66.3,32.7c0.1,2.5,0.1,3.4,0.1,9.8s0,7.3-0.1,9.8c0,2-0.4,3.9-1.1,5.8c-1.2,3.2-3.8,5.8-7,7
				c-1.8,0.7-3.8,1.1-5.8,1.1c-2.5,0.1-3.4,0.1-9.8,0.1s-7.3,0-9.8-0.1c-2,0-3.9-0.4-5.8-1.1c-3.2-1.2-5.8-3.8-7-7
				c-0.7-1.8-1.1-3.7-1.2-5.7c-0.1-2.5-0.1-3.4-0.1-9.8s0-7.3,0.1-9.8c0-2,0.4-3.9,1.1-5.8c1.2-3.2,3.8-5.8,7-7
				c1.9-0.7,3.8-1.1,5.8-1.1c2.5-0.1,3.4-0.1,9.8-0.1l0.1,0c6.5,0,7.3,0,9.8,0.1c2,0,3.9,0.4,5.8,1.1c3.2,1.2,5.8,3.8,7,7
				C65.9,28.8,66.2,30.7,66.3,32.7z M61.9,52.1c0.1-2.5,0.1-3.3,0.1-9.6s0-7.1-0.1-9.6c0-1.5-0.3-3-0.8-4.4
				c-0.8-2.1-2.4-3.7-4.5-4.5c-1.4-0.5-2.9-0.8-4.4-0.8C49.6,23,48.8,23,42.5,23s-7.1,0-9.6,0.2c-1.5,0-3,0.3-4.4,0.8
				c-2,0.8-3.7,2.4-4.5,4.5c-0.5,1.4-0.8,2.9-0.9,4.4C23,35.4,23,36.2,23,42.5s0,7.1,0.2,9.6c0,1.5,0.3,3,0.8,4.4
				c0.8,2.1,2.4,3.7,4.5,4.5c1.4,0.5,2.9,0.8,4.4,0.8c2.5,0.1,3.3,0.1,9.6,0.1s7.1,0,9.6-0.1c1.5,0,3-0.3,4.4-0.8
				c2.1-0.8,3.7-2.4,4.5-4.5C61.6,55.1,61.9,53.6,61.9,52.1z"/>
			<path class="st0" d="M62,42.5c0,6.4,0,7.1-0.1,9.6c0,1.5-0.3,3-0.8,4.4c-0.8,2.1-2.4,3.7-4.5,4.5c-1.4,0.5-2.9,0.8-4.4,0.8
				C49.6,62,48.9,62,42.5,62s-7.1,0-9.6-0.1c-1.5,0-3-0.3-4.4-0.8c-2-0.8-3.7-2.5-4.5-4.5c-0.5-1.4-0.8-2.9-0.8-4.4
				C23,49.6,23,48.8,23,42.5s0-7.1,0.1-9.6c0-1.5,0.3-3,0.9-4.4c0.8-2,2.4-3.7,4.5-4.5c1.4-0.5,2.9-0.8,4.4-0.8
				c2.5-0.2,3.3-0.2,9.6-0.2s7.1,0,9.6,0.1c1.5,0,3,0.3,4.4,0.8c2.1,0.8,3.7,2.4,4.5,4.5c0.5,1.4,0.8,2.9,0.8,4.4
				C62,35.4,62,36.2,62,42.5z M58.1,29.8c0-1.6-1.3-2.9-2.9-2.9c-1.6,0-2.9,1.3-2.9,2.9s1.3,2.9,2.9,2.9
				C56.8,32.7,58.1,31.4,58.1,29.8z M54.7,42.5c0-6.8-5.5-12.2-12.2-12.2s-12.2,5.5-12.2,12.2s5.5,12.2,12.2,12.2
				S54.7,49.2,54.7,42.5z"/>
			<circle class="st0" cx="55.2" cy="29.8" r="2.9"/>
			<path class="st1" d="M42.5,30.3c6.8,0,12.2,5.5,12.2,12.2s-5.5,12.2-12.2,12.2s-12.2-5.5-12.2-12.2S35.8,30.3,42.5,30.3z
				 M50.4,42.5c0-4.4-3.5-7.9-7.9-7.9s-7.9,3.5-7.9,7.9s3.5,7.9,7.9,7.9S50.4,46.9,50.4,42.5z"/>
			<circle class="st0" cx="42.5" cy="42.5" r="7.9"/>
		</g>
		<g>
		</g>
	</g>
</g>
</svg>
