<?xml version="1.0" encoding="utf-8"?>
<!-- Generator: Adobe Illustrator 24.1.0, SVG Export Plug-In . SVG Version: 6.00 Build 0)  -->
<svg version="1.1" id="Layer_1" xmlns="http://www.w3.org/2000/svg" xmlns:xlink="http://www.w3.org/1999/xlink" x="0px" y="0px"
	 viewBox="0 0 85 85" style="enable-background:new 0 0 85 85;" xml:space="preserve">
<style type="text/css">
	.st0{fill:#FFFFFF;}
	.st1{fill:#2B4CAD;}
</style>
<g id="Twitter">
	<g id="XMLID_1_">
		<g>
			<path class="st0" d="M42.5,0C66,0,85,19,85,42.5S66,85,42.5,85S0,66,0,42.5S19,0,42.5,0z M61.5,32.8c1.9-1.4,3.5-3.1,4.8-5.1
				c-1.8,0.8-3.7,1.3-5.6,1.5c2.1-1.2,3.6-3.1,4.3-5.4c-1.9,1.1-4,1.9-6.2,2.4c-3.7-3.9-9.9-4.1-13.8-0.4c-2,1.8-3.1,4.4-3.1,7.1
				c0,0.8,0.1,1.5,0.2,2.2C34.3,34.8,27,31.1,22,25c-2.6,4.5-1.3,10.1,3,13c-1.5,0-3.1-0.5-4.4-1.2v0.1c0,4.7,3.3,8.7,7.8,9.6
				c-1.4,0.4-3,0.4-4.4,0.2c1.3,4,4.9,6.7,9.1,6.8c-3.5,2.7-7.7,4.2-12.1,4.2c-0.8,0-1.6,0-2.3-0.1c4.5,2.9,9.7,4.4,15,4.4
				c18,0,27.8-14.9,27.8-27.8C61.5,33.6,61.5,33.2,61.5,32.8z"/>
			<path class="st1" d="M66.3,27.7c-1.3,2-2.9,3.7-4.8,5.1c0,0.4,0,0.8,0,1.3c0,12.9-9.8,27.8-27.8,27.8c-5.3,0-10.5-1.5-15-4.4
				c0.8,0.1,1.5,0.1,2.3,0.1c4.4,0,8.7-1.5,12.1-4.2c-4.2-0.1-7.8-2.8-9.1-6.8c1.5,0.3,3,0.2,4.4-0.2c-4.6-0.9-7.8-4.9-7.8-9.6v-0.1
				c1.4,0.8,2.9,1.2,4.4,1.2c-4.3-2.9-5.6-8.5-3-13c5,6.1,12.3,9.8,20.2,10.2c-0.2-0.7-0.2-1.5-0.2-2.2c0-2.7,1.1-5.3,3.1-7.1
				c3.9-3.7,10.1-3.5,13.8,0.4c2.2-0.4,4.3-1.2,6.2-2.4c-0.7,2.3-2.3,4.2-4.3,5.4C62.6,29,64.5,28.5,66.3,27.7z"/>
		</g>
		<g>
		</g>
	</g>
</g>
</svg>
