<?xml version="1.0" encoding="utf-8"?>
<!-- Generator: Adobe Illustrator 24.1.0, SVG Export Plug-In . SVG Version: 6.00 Build 0)  -->
<svg version="1.1" id="Layer_1" xmlns="http://www.w3.org/2000/svg" xmlns:xlink="http://www.w3.org/1999/xlink" x="0px" y="0px"
	 viewBox="0 0 655.1 278.1" style="enable-background:new 0 0 655.1 278.1;" xml:space="preserve">
<style type="text/css">
	.st0{display:none;}
	.st1{display:inline;fill:none;stroke:#000000;stroke-width:9;stroke-miterlimit:10;}
	.st2{display:inline;fill:none;stroke:#000000;stroke-width:9;stroke-linecap:round;stroke-miterlimit:10;}
	.st3{display:inline;fill:none;stroke:#214080;stroke-width:9;stroke-miterlimit:10;}
	.st4{display:inline;fill:none;stroke:#214080;stroke-width:6;stroke-miterlimit:10;}
	.st5{display:inline;fill:none;stroke:#214080;stroke-width:5;stroke-miterlimit:10;}
	.st6{fill:#FFFFFF;}
	.st7{fill:none;}
	.st8{font-family:'Copperplate';}
	.st9{font-size:110px;}
</style>
<g id="Layer_1_1_" class="st0">
</g>
<g id="Layer_2_1_" class="st0">
	<path class="st1" d="M141.6,157.5c2.2,1.5-16.3-156.1,26.9-152.4C211.8,8.8,207,134.3,207,134.3s13.2-33.2,81.8-29.5
		s108.7,33.8,103.9,105s-33.2,65.9-33.2,65.9s43.2,6.9,5.8,22.7s-97.6,20-113.4,20s-138.2-5.8-105.5-32.7c0,0-27.8-18.3-22.1-52.2
		c0.5-3.2-28.5-35.3-44.8-43.8c-16.3-8.4-36.9-18.5-29-40.1S77.8,115.3,141.6,157.5z"/>
	<line class="st2" x1="105" y1="-34.5" x2="127.9" y2="-7.6"/>
	<line class="st2" x1="166.7" y1="-16.3" x2="164.3" y2="-55.1"/>
	<line class="st2" x1="203.9" y1="-7.6" x2="227.6" y2="-40.8"/>
</g>
<g id="Layer_3" class="st0">
	<circle class="st3" cx="331.8" cy="140.9" r="120"/>
	<circle class="st3" cx="331.8" cy="64" r="32.4"/>
	<circle class="st3" cx="331.8" cy="216.9" r="32.4"/>
	<circle class="st3" cx="406.8" cy="140.5" r="32.4"/>
	<circle class="st3" cx="257.4" cy="140.9" r="32.4"/>
	<circle class="st3" cx="331.8" cy="140.5" r="17.4"/>
	<path class="st3" d="M289,27.9c-4-1.5-125.7-73.5-251.3,30.4l24.8,207.3c0,0,113-69.4,204.7-23.6"/>
	<path class="st3" d="M75.7,83.5L90,193.6c1,7.9,9.2,12.8,16.6,9.9c18.8-7.2,55.7-10.8,73.5-14.9c7.2-1.6,7.9-16.2,8.3-23.6
		l10.8-105.4c0.9-8.7-5.1-16.7-13.8-18.1c-24-4-71.6-5.5-107.6,34.7C76.1,78.2,75.3,80.9,75.7,83.5z"/>
</g>
<g id="Layer_4" class="st0">
	<path class="st4" d="M138,205.8c0,0-3.6-23.9,5.9-34s11.9-11.9,40-9.7v19.4c0,0-18.4-1.4-21,3.8s-1.8,20.6-1.8,20.6h21.4l-2.6,22.8
		h-19.6v67.2l-22.4,2.3v-69.6h-19.6V207L138,205.8z"/>
	<circle class="st3" cx="132.9" cy="212.4" r="87.8"/>
	<circle class="st3" cx="308.5" cy="212.4" r="87.8"/>
	<circle class="st3" cx="220.7" cy="59" r="87.8"/>
	<polygon class="st4" points="300.2,199.7 300.2,226.2 324.1,212.4 	"/>
	<path class="st4" d="M310.9,180.3c-0.2,0-37.4-0.4-41.3,4.5c-4,5-5.3,19-5,31.9c0.4,12.9-0.1,19.4,5.9,23.3
		c6.4,4.2,29.1,4.5,35.9,4.4c6.7-0.2,37.7,1.4,42.9-5.5c5.1-6.9,5.5-22.5,5.5-28.1s0.2-19.8-5-24.5S314.2,180.4,310.9,180.3z"/>
	<path class="st5" d="M198.9,87.7c0,0-12.7,15.9-26.8,11.4c0,0,43.2,29.4,81.4-18.1c0,0,13.9-18.2,13.2-43.5c0,0,8.1-4.2,11.3-10.9
		c0,0-10.9,5.1-13,2.4c0,0,7.9-3.2,9.9-12.7c0,0-13,7.9-14.6,5.7c0,0-9.9-11.7-26.1-5.7c0,0-18.2,7.5-13.4,27.3
		c0,0-34.8-3.2-48.1-24.3c0,0-11.7,15.6,6.9,30.7c0,0-7.7-0.6-10.5-2.6c0,0-2.2,17.2,19,23c0,0-7.7,3.8-10.3,1
		C177.8,71.3,179.1,84.4,198.9,87.7z"/>
</g>
<g id="Layer_5">
	<rect x="11.6" y="17.3" class="st6" width="54.3" height="190.9"/>
	<rect x="161.9" y="17.3" class="st6" width="54.3" height="190.9"/>
	<rect x="88.6" y="56.9" class="st6" width="54.3" height="151.4"/>
	<rect x="11.6" y="206.7" class="st6" width="634.5" height="54.3"/>
	<rect x="222.3" y="148.4" class="st7" width="467.4" height="81.2"/>
	<text transform="matrix(1 0 0 1 222.2594 208.5388)" class="st6 st8 st9">EBTER</text>
</g>
</svg>
