<?xml version="1.0" encoding="utf-8"?>
<!-- Generator: Adobe Illustrator 24.1.0, SVG Export Plug-In . SVG Version: 6.00 Build 0)  -->
<svg version="1.1" id="Layer_1" xmlns="http://www.w3.org/2000/svg" xmlns:xlink="http://www.w3.org/1999/xlink" x="0px" y="0px"
	 viewBox="0 0 85 85" style="enable-background:new 0 0 85 85;" xml:space="preserve">
<style type="text/css">
	.st0{fill:#FFFFFF;}
	.st1{fill:#2A4BAC;}
</style>
<g id="YouTube">
	<g id="XMLID_1_">
		<g>
			<path class="st0" d="M42.5,0C66,0,85,19,85,42.5S66,85,42.5,85S0,66,0,42.5S19,0,42.5,0z M66.3,52V33c0-3.8-3.1-6.8-6.8-6.8h-34
				c-3.8,0-6.8,3-6.8,6.8v19c0,3.8,3,6.8,6.8,6.8h34C63.2,58.8,66.3,55.8,66.3,52z"/>
			<path class="st1" d="M66.3,33v19c0,3.8-3.1,6.8-6.8,6.8h-34c-3.8,0-6.8-3-6.8-6.8V33c0-3.8,3-6.8,6.8-6.8h34
				C63.2,26.2,66.3,29.2,66.3,33z M37.6,48.3l12.9-6.7L37.6,35V48.3z"/>
			<polygon class="st0" points="50.5,41.7 37.6,48.3 37.6,35 			"/>
		</g>
		<g>
		</g>
	</g>
</g>
</svg>
